<?xml version="1.0" encoding="utf-8"?>
<!-- Generator: Adobe Illustrator 18.1.1, SVG Export Plug-In . SVG Version: 6.00 Build 0)  -->
<svg version="1.1" id="Layer_1" xmlns="http://www.w3.org/2000/svg" xmlns:xlink="http://www.w3.org/1999/xlink" x="0px" y="0px"
	 viewBox="0 0 504.7 298.3" enable-background="new 0 0 504.7 298.3" xml:space="preserve">
<text id="P_Shadow" transform="matrix(1 0 0 1 442.6807 201.3988)" display="none" fill="#CCCBA6" stroke="#CCCBA6" stroke-width="4" stroke-miterlimit="10" font-family="'TimesNewRomanPSMT'" font-size="104">P</text>
<text id="A_Shadow" transform="matrix(1 0 0 1 343.6807 201.3968)" display="none" fill="#CCCBA6" stroke="#CCCBA6" stroke-width="4" stroke-miterlimit="10" font-family="'TimesNewRomanPSMT'" font-size="104">A</text>
<text id="M_Shadow" transform="matrix(1 0 0 1 228.4131 201.3988)" display="none" fill="#CCCBA6" stroke="#CCCBA6" stroke-width="4" stroke-miterlimit="10" font-family="'TimesNewRomanPSMT'" font-size="104">M</text>
<text transform="matrix(1 0 0 1 437.5469 197.4013)" stroke="#000000" stroke-width="2" stroke-miterlimit="10" font-family="'TimesNewRomanPSMT'" font-size="104">P</text>
<text transform="matrix(1 0 0 1 338.5469 197.3994)" stroke="#000000" stroke-width="2" stroke-miterlimit="10" font-family="'TimesNewRomanPSMT'" font-size="104">A</text>
<text transform="matrix(1 0 0 1 223.2793 197.4013)" stroke="#000000" stroke-width="2" stroke-miterlimit="10" font-family="'TimesNewRomanPSMT'" font-size="104">M</text>
<path id="Small_C" fill-rule="evenodd" clip-rule="evenodd" stroke="#000000" stroke-miterlimit="10" d="M205.2,127.4
	c0,0-7.3-24.5-33.4-25.5c-57.9-2.2-70.7,82-26.1,101c26.9,11.5,46.1-9.3,46.1-9.3s-17.4,9.7-34.9,1.5c-36.4-17.2-21.5-83.5,22.7-82
	C199.3,113.8,205.2,127.4,205.2,127.4z"/>
<path id="Medium_C" fill-rule="evenodd" clip-rule="evenodd" fill="#FF0000" stroke="#FF0000" stroke-width="3" stroke-miterlimit="10" d="
	M234,86.1c0,0-30.3-37.4-84.5-28.8C65.6,70.7,39.8,185.9,114,235.9c35.7,24.1,78.7,9.6,78.7,9.6s-28.1,6.5-60.5-11.5
	C61.7,194.8,86,76.2,163.9,67.9C211.2,62.8,234,86.1,234,86.1z"/>
<path id="Large_C" fill-rule="evenodd" clip-rule="evenodd" stroke="#000000" stroke-width="3" stroke-miterlimit="10" d="
	M262.8,77.5c-1.1-1.1-35-75.9-134.4-62.4C2,32.2-19,193.1,65.1,256c73.2,54.8,144,13.4,144,13.4s-54.3,21.2-105.6-9.6
	c-116.6-70-57.9-235.3,64.3-230.4C235.4,32.2,263.9,78.6,262.8,77.5z"/>
</svg>
