<?xml version="1.0" encoding="utf-8"?>
<!-- Generator: Adobe Illustrator 18.0.0, SVG Export Plug-In . SVG Version: 6.00 Build 0)  -->
<!DOCTYPE svg PUBLIC "-//W3C//DTD SVG 1.1//EN" "http://www.w3.org/Graphics/SVG/1.1/DTD/svg11.dtd">
<svg version="1.1" id="Layer_1" xmlns="http://www.w3.org/2000/svg" xmlns:xlink="http://www.w3.org/1999/xlink" x="0px" y="0px"
	 viewBox="0 0 504.7 298.3" enable-background="new 0 0 504.7 298.3" xml:space="preserve">
<g>
	<path stroke="#000000" stroke-width="2" stroke-miterlimit="10" d="M458.9,165.2v20.1c0,4.3,0.5,7,1.4,8.1c1.3,1.5,3.2,2.2,5.8,2.2
		h2.6v1.9h-29.5v-1.9h2.6c2.9,0,5-0.9,6.2-2.8c0.7-1,1-3.5,1-7.5v-44.5c0-4.3-0.5-7-1.4-8.1c-1.3-1.5-3.3-2.2-5.9-2.2h-2.6v-1.9
		h25.2c6.2,0,11,0.6,14.6,1.9s6.6,3.4,9,6.4c2.4,3,3.7,6.6,3.7,10.7c0,5.6-1.9,10.2-5.6,13.7c-3.7,3.5-8.9,5.3-15.7,5.3
		c-1.7,0-3.5-0.1-5.4-0.4C463.1,166,461.1,165.6,458.9,165.2z M458.9,162.3c1.8,0.3,3.4,0.6,4.8,0.8c1.4,0.2,2.6,0.3,3.6,0.3
		c3.5,0,6.6-1.4,9.1-4.1c2.6-2.7,3.8-6.3,3.8-10.6c0-3-0.6-5.7-1.8-8.3c-1.2-2.6-2.9-4.5-5.2-5.7s-4.8-1.9-7.6-1.9
		c-1.7,0-3.9,0.3-6.7,1V162.3z"/>
</g>
<g>
	<path stroke="#000000" stroke-width="2" stroke-miterlimit="10" d="M386.1,174.3h-26.7l-4.7,10.9c-1.2,2.7-1.7,4.7-1.7,6
		c0,1,0.5,2,1.5,2.8c1,0.8,3.2,1.3,6.5,1.5v1.9h-21.7v-1.9c2.9-0.5,4.7-1.2,5.6-2c1.7-1.6,3.6-4.9,5.7-9.9l24.2-56.7h1.8l24,57.3
		c1.9,4.6,3.7,7.6,5.3,9s3.8,2.1,6.6,2.3v1.9h-27.2v-1.9c2.7-0.1,4.6-0.6,5.6-1.4c1-0.8,1.4-1.7,1.4-2.8c0-1.5-0.7-3.8-2-7.1
		L386.1,174.3z M384.7,170.6L373,142.8l-12,27.8H384.7z"/>
</g>
<g>
	<path stroke="#000000" stroke-width="2" stroke-miterlimit="10" d="M265.8,197.4l-26.6-57.9v46c0,4.2,0.5,6.9,1.4,7.9
		c1.3,1.4,3.2,2.1,5.9,2.1h2.4v1.9h-24v-1.9h2.4c2.9,0,5-0.9,6.2-2.6c0.7-1.1,1.1-3.6,1.1-7.4v-45c0-3-0.3-5.2-1-6.6
		c-0.5-1-1.3-1.8-2.6-2.5s-3.3-1-6.1-1v-1.9h19.5l25,53.9l24.6-53.9h19.5v1.9h-2.4c-2.9,0-5,0.9-6.2,2.6c-0.7,1.1-1.1,3.6-1.1,7.4
		v45c0,4.2,0.5,6.9,1.4,7.9c1.3,1.4,3.2,2.1,5.9,2.1h2.4v1.9h-29.3v-1.9h2.4c2.9,0,5-0.9,6.2-2.6c0.7-1.1,1.1-3.6,1.1-7.4v-46
		l-26.6,57.9H265.8z"/>
</g>
<path id="Small_C" fill-rule="evenodd" clip-rule="evenodd" stroke="#000000" stroke-miterlimit="10" d="M205.2,127.4
	c0,0-7.3-24.5-33.4-25.5c-57.9-2.2-70.7,82-26.1,101c26.9,11.5,46.1-9.3,46.1-9.3s-17.4,9.7-34.9,1.5c-36.4-17.2-21.5-83.5,22.7-82
	C199.3,113.8,205.2,127.4,205.2,127.4z"/>
<path id="Medium_C" fill-rule="evenodd" clip-rule="evenodd" fill="#FF0000" stroke="#FF0000" stroke-width="3" stroke-miterlimit="10" d="
	M234,86.1c0,0-30.3-37.4-84.5-28.8C65.6,70.7,39.8,185.9,114,235.9c35.7,24.1,78.7,9.6,78.7,9.6s-28.1,6.5-60.5-11.5
	C61.7,194.8,86,76.2,163.9,67.9C211.2,62.8,234,86.1,234,86.1z"/>
<path id="Large_C" fill-rule="evenodd" clip-rule="evenodd" stroke="#000000" stroke-width="3" stroke-miterlimit="10" d="
	M262.8,77.5c-1.1-1.1-35-75.9-134.4-62.4C2,32.2-19,193.1,65.1,256c73.2,54.8,144,13.4,144,13.4s-54.3,21.2-105.6-9.6
	c-116.6-70-57.9-235.3,64.3-230.4C235.4,32.2,263.9,78.6,262.8,77.5z"/>
<g>
</g>
<g>
</g>
<g>
</g>
<g>
</g>
<g>
</g>
</svg>
